<?xml version="1.0" standalone="no"?>
<!DOCTYPE svg PUBLIC "-//W3C//DTD SVG 20010904//EN"
 "http://www.w3.org/TR/2001/REC-SVG-20010904/DTD/svg10.dtd">
<svg version="1.0" xmlns="http://www.w3.org/2000/svg"
 width="690.000000pt" height="690.000000pt" viewBox="0 0 690.000000 690.000000"
 preserveAspectRatio="xMidYMid meet">
<metadata>
Created by potrace 1.11, written by Peter Selinger 2001-2013
</metadata>
<g transform="translate(0.000000,690.000000) scale(0.100000,-0.100000)"
fill="#000000" stroke="none">
<path d="M0 3450 l0 -3450 3450 0 3450 0 0 3450 0 3450 -3450 0 -3450 0 0
-3450z m2251 1175 c66 -143 142 -306 169 -363 70 -145 71 -142 -45 -142 l-95
0 -22 45 -22 45 -152 0 -152 0 -18 -45 -17 -45 -348 0 -349 0 0 380 0 380 240
0 241 0 -3 -87 -3 -88 -137 -3 -138 -3 0 -49 0 -50 130 0 130 0 0 -85 0 -85
-130 0 -130 0 0 -65 0 -65 186 2 185 3 120 260 c66 143 127 275 134 293 14 31
17 33 60 30 l46 -3 120 -260z m2601 -104 c92 -200 168 -372 168 -382 0 -17 -8
-19 -95 -19 l-95 0 -22 45 -22 45 -148 0 -148 0 -22 -45 -22 -45 -332 0 -332
0 -5 53 c-3 28 -6 199 -7 380 l-1 327 101 0 100 0 0 -290 0 -290 177 2 177 3
135 293 135 293 45 -3 45 -3 168 -364z m616 355 c108 -29 205 -113 236 -203
26 -75 27 -73 -78 -73 l-94 0 -21 35 c-36 62 -143 93 -218 64 -134 -50 -156
-285 -35 -377 31 -24 45 -27 107 -27 62 0 76 3 107 27 19 15 41 41 48 57 l12
31 94 0 c109 0 109 0 74 -94 -27 -71 -86 -130 -168 -169 -62 -29 -75 -32 -173
-32 -102 0 -108 1 -182 38 -86 43 -130 89 -174 183 -25 53 -28 70 -28 164 0
94 3 111 29 167 30 65 105 147 164 177 84 44 206 57 300 32z m-4490 -30 c88
-49 132 -128 132 -235 -1 -68 -18 -119 -56 -167 -16 -20 -33 -42 -38 -49 -7
-9 12 -48 62 -128 40 -63 72 -122 72 -131 0 -15 -14 -16 -112 -14 l-113 3 -63
113 -64 112 -49 0 -49 0 0 -115 0 -115 -100 0 -100 0 0 381 0 380 213 -3 212
-3 53 -29z m1722 -261 l0 -295 115 0 115 0 0 -54 c0 -51 -2 -56 -39 -85 l-39
-31 -176 0 -176 0 0 380 0 380 100 0 100 0 0 -295z m825 271 c90 -42 135 -112
135 -208 0 -38 -7 -65 -25 -95 -23 -41 -23 -43 -5 -53 38 -20 64 -79 63 -144
-1 -79 -26 -138 -74 -180 -55 -47 -97 -56 -258 -56 l-141 0 -55 36 -55 37 0
343 0 344 183 0 c170 0 185 -2 232 -24z m2475 -116 l0 -140 48 0 c98 0 143 59
150 198 l5 82 98 0 99 0 0 -83 c0 -132 -32 -216 -107 -283 l-35 -31 101 -164
c55 -90 101 -172 101 -181 0 -16 -12 -18 -108 -18 l-109 0 -84 145 -84 145
-37 0 -38 0 0 -145 0 -145 -100 0 -100 0 0 380 0 380 100 0 100 0 0 -140z
m-2879 -626 c79 -76 14 -214 -95 -200 -59 7 -99 52 -99 111 0 109 117 163 194
89z m-1531 -304 c0 -7 -182 -10 -525 -10 -343 0 -525 3 -525 10 0 7 182 10
525 10 343 0 525 -3 525 -10z m780 1 c27 -5 -84 -9 -282 -10 -213 -1 -328 3
-328 9 0 12 542 13 610 1z m1435 -1 c32 -4 -46 -8 -212 -9 -170 -1 -263 3
-263 9 0 12 399 12 475 0z m1245 0 c0 -5 -24 -10 -54 -10 -30 0 -58 5 -61 10
-4 6 17 10 54 10 34 0 61 -4 61 -10z m440 0 c0 -6 -30 -10 -69 -10 -39 0 -73
5 -76 10 -4 6 22 10 69 10 44 0 76 -4 76 -10z m970 0 c0 -6 -32 -10 -76 -10
-47 0 -73 4 -69 10 3 6 37 10 76 10 39 0 69 -4 69 -10z m-4013 -16 c-3 -3 -12
-4 -19 -1 -8 3 -5 6 6 6 11 1 17 -2 13 -5z m1440 0 c-3 -3 -12 -4 -19 -1 -8 3
-5 6 6 6 11 1 17 -2 13 -5z m-787 -44 c0 -6 -27 -10 -60 -10 -33 0 -60 4 -60
10 0 6 27 10 60 10 33 0 60 -4 60 -10z m3070 -216 c-6 -14 -10 -27 -10 -30 0
-2 25 -4 56 -4 64 0 64 0 11 -87 l-31 -53 -61 0 c-34 0 -66 -5 -73 -12 -23
-23 -13 25 17 78 23 43 90 133 98 134 1 0 -2 -12 -7 -26z m-4349 -34 l59 0 0
-70 0 -70 -60 0 c-41 0 -60 -4 -61 -12 -1 -25 -28 48 -29 78 0 36 22 104 28
86 2 -8 25 -12 63 -12z m1570 0 l59 0 0 -70 0 -70 -60 0 c-41 0 -60 -4 -60
-12 0 -9 -4 -8 -10 2 -11 17 -13 130 -3 156 4 11 8 13 11 6 2 -8 26 -12 63
-12z m1429 0 l59 0 -13 -42 c-29 -94 -33 -98 -97 -98 -32 0 -61 -5 -65 -11 -5
-8 -10 -7 -16 4 -5 10 -2 34 11 67 24 64 53 109 59 92 2 -8 25 -12 62 -12z
m-4160 -70 l0 -68 -66 -4 c-62 -3 -67 -1 -75 20 -5 13 -9 36 -9 52 0 16 4 39
9 52 8 21 13 23 75 20 l66 -4 0 -68z m2064 47 c8 -29 8 -81 0 -101 -5 -12 -20
-16 -64 -16 -49 0 -58 -3 -67 -21 -7 -17 -10 -2 -12 61 -1 46 -2 86 -3 89 -1
15 6 16 71 13 61 -3 70 -6 75 -25z m1545 -14 c10 -21 22 -53 26 -70 l7 -33
-74 0 -73 1 -32 64 c-18 35 -33 67 -33 70 0 3 36 5 80 5 l80 0 19 -37z m911
-5 c10 -24 22 -55 25 -70 l7 -28 -76 0 c-85 0 -80 -5 -112 98 l-13 42 75 0 75
0 19 -42z m508 15 c11 -16 29 -47 41 -70 l21 -43 -78 0 -79 0 -25 38 c-14 20
-32 52 -42 70 l-17 32 80 0 c76 0 81 -1 99 -27z m-2643 -35 l60 -3 0 -65 0
-65 -62 -3 c-41 -2 -63 -7 -63 -15 0 -7 -4 -6 -10 3 -5 8 -10 43 -10 77 0 65
8 102 19 84 4 -5 33 -11 66 -13z m-1747 -1578 c-2 -112 -6 -154 -15 -158 -10
-3 -13 33 -13 156 0 87 3 162 7 166 18 18 23 -23 21 -164z m-670 134 c37 -26
52 -67 52 -144 0 -84 -17 -122 -66 -145 -41 -19 -68 -19 -109 1 -45 21 -65 67
-65 149 0 107 37 155 120 155 25 0 56 -7 68 -16z m822 1 c0 -8 -7 -15 -15 -15
-8 0 -15 7 -15 15 0 8 7 15 15 15 8 0 15 -7 15 -15z m-630 -85 l0 -20 20 20
c29 29 94 27 114 -2 18 -26 23 -202 6 -213 -6 -4 -10 27 -10 86 0 72 -4 96
-17 111 -22 24 -62 23 -90 -4 -21 -19 -23 -30 -23 -110 0 -57 -4 -87 -10 -83
-6 4 -10 55 -10 121 0 69 4 114 10 114 6 0 10 -9 10 -20z m630 -79 c0 -101 -5
-131 -21 -131 -5 0 -9 52 -9 115 0 96 3 115 15 115 12 0 15 -18 15 -99z m140
84 c0 -19 9 -19 34 0 44 33 109 12 121 -38 11 -40 1 -170 -12 -175 -10 -3 -13
20 -13 90 0 60 -4 98 -12 106 -20 20 -67 14 -93 -13 -22 -22 -25 -32 -25 -104
0 -44 -4 -83 -10 -86 -6 -4 -10 37 -10 114 0 74 4 121 10 121 6 0 10 -7 10
-15z m412 4 c20 -11 48 -65 48 -94 0 -12 -15 -15 -85 -15 -84 0 -85 0 -85 -25
0 -58 78 -94 127 -60 12 8 24 11 27 6 9 -14 -20 -32 -61 -37 -82 -10 -140 69
-114 155 20 68 87 100 143 70z m328 -5 c0 -14 2 -14 22 0 29 20 77 20 105 1
42 -29 53 -141 20 -186 -29 -38 -75 -48 -119 -25 -25 13 -28 13 -28 -2 0 -9
-5 -24 -10 -32 -7 -10 -10 30 -10 123 0 85 4 137 10 137 6 0 10 -7 10 -16z
m425 -9 c23 -22 25 -31 25 -121 0 -92 -1 -96 -17 -81 -16 13 -21 14 -43 2 -58
-32 -120 -7 -120 49 0 46 28 68 95 74 53 4 55 6 55 33 0 52 -74 67 -115 24
-14 -16 -26 -22 -30 -16 -3 6 5 22 19 36 35 35 97 35 131 0z m289 4 c25 -20
36 -59 16 -59 -5 0 -10 5 -10 12 0 23 -34 48 -66 48 -46 0 -74 -38 -74 -100 0
-63 28 -100 75 -100 24 0 39 7 53 25 22 28 32 32 32 12 0 -23 -36 -48 -77 -54
-49 -6 -88 23 -103 78 -13 48 1 110 32 139 29 27 87 26 122 -1z m316 -99 c0
-102 -2 -119 -15 -114 -12 5 -15 27 -15 111 l0 104 -62 -3 -63 -3 -3 -100 c-4
-148 -22 -145 -22 3 l0 122 90 0 90 0 0 -120z m140 104 c0 -14 2 -14 22 0 58
41 133 6 145 -67 18 -114 -52 -186 -137 -142 -30 15 -30 15 -30 -14 0 -16 -4
-33 -10 -36 -6 -4 -10 43 -10 134 0 87 4 141 10 141 6 0 10 -7 10 -16z m433
-5 c51 -40 56 -150 9 -192 -45 -41 -131 -28 -157 24 -8 15 -15 51 -15 79 0 44
5 56 29 81 37 36 94 40 134 8z m317 -89 c0 -67 4 -110 10 -110 6 0 10 -19 9
-42 l0 -43 -12 35 -12 35 -83 3 c-78 3 -83 2 -91 -20 l-8 -23 -7 22 c-5 15 0
31 14 51 19 25 38 117 40 185 0 14 10 17 70 17 l70 0 0 -110z m270 90 c17 -17
20 -33 20 -115 0 -52 -4 -95 -9 -95 -5 0 -11 5 -13 12 -3 8 -11 7 -28 -5 -35
-24 -77 -21 -105 8 -57 56 -8 115 96 115 33 0 39 3 39 22 0 57 -81 80 -118 33
-23 -28 -32 -32 -32 -10 0 50 109 76 150 35z m196 -35 c49 -69 68 -68 72 3 4
66 22 69 22 3 0 -82 17 -78 91 19 14 18 31 31 38 29 8 -3 -1 -22 -28 -56 -44
-55 -48 -65 -28 -81 7 -6 27 -31 45 -56 45 -62 10 -50 -42 15 -22 27 -48 49
-58 49 -15 0 -18 -8 -18 -50 0 -27 -4 -50 -10 -50 -5 0 -10 23 -10 50 0 43 -3
50 -19 50 -11 0 -36 -20 -57 -46 -20 -25 -46 -50 -57 -56 -24 -12 -19 -3 35
65 21 27 35 54 31 60 -3 7 -18 28 -33 47 -39 51 -43 60 -27 60 7 0 31 -25 53
-55z m489 30 c23 -22 25 -32 25 -115 0 -81 -8 -107 -25 -81 -3 6 -17 4 -33 -5
-60 -31 -122 -6 -122 50 0 46 28 68 95 74 53 4 55 6 55 33 0 52 -74 67 -115
24 -14 -16 -26 -22 -30 -16 -3 6 5 22 19 36 35 35 97 35 131 0z m445 15 c0 -5
-26 -10 -57 -12 l-58 -3 -3 -107 c-4 -149 -22 -139 -22 12 l0 120 70 0 c39 0
70 -4 70 -10z m243 -11 c51 -40 56 -150 9 -192 -45 -41 -131 -28 -157 24 -8
15 -15 51 -15 79 0 44 5 56 29 81 37 36 94 40 134 8z m317 -88 c0 -69 4 -111
11 -113 6 -2 9 -19 7 -38 l-4 -35 -8 33 -8 32 -89 0 -89 0 -1 -37 -1 -38 -10
37 c-8 31 -6 41 12 66 24 33 39 92 40 160 l0 42 70 0 70 0 0 -109z m268 92
c18 -16 21 -32 24 -119 3 -80 1 -101 -9 -97 -7 3 -13 9 -13 14 0 5 -13 3 -30
-6 -42 -22 -77 -19 -105 10 -31 30 -31 47 -2 81 19 22 34 28 80 32 51 4 57 7
57 28 0 55 -82 75 -118 29 -14 -18 -23 -22 -28 -14 -4 7 4 22 20 36 33 28 94
31 124 6z m-5308 -83 c0 -5 -22 -10 -50 -10 -27 0 -50 5 -50 10 0 6 23 10 50
10 28 0 50 -4 50 -10z"/>
<path d="M2043 4475 l-41 -95 83 0 84 0 -34 81 c-19 44 -39 87 -43 95 -6 11
-21 -14 -49 -81z"/>
<path d="M4593 4476 l-41 -96 84 0 c46 0 84 2 84 4 0 2 -19 45 -43 96 l-43 92
-41 -96z"/>
<path d="M700 4610 l0 -90 79 0 c70 0 83 3 108 24 23 20 28 32 28 69 0 73 -20
87 -127 87 l-88 0 0 -90z"/>
<path d="M3290 4646 l0 -53 65 -7 c38 -4 73 -2 84 3 27 15 35 58 16 87 -14 22
-22 24 -90 24 l-75 0 0 -54z"/>
<path d="M3290 4361 l0 -59 80 -7 c96 -9 130 6 130 55 0 54 -28 70 -125 70
l-85 0 0 -59z"/>
<path d="M507 1979 c-45 -26 -62 -147 -31 -213 25 -50 75 -69 127 -45 34 15
49 45 54 109 6 67 -9 124 -40 145 -25 17 -84 19 -110 4z"/>
<path d="M1901 1884 c-36 -46 -29 -54 49 -54 63 0 70 2 70 20 0 57 -83 80
-119 34z"/>
<path d="M2350 1890 c-16 -16 -20 -33 -20 -84 0 -56 3 -67 22 -80 59 -42 118
0 118 84 0 86 -69 131 -120 80z"/>
<path d="M2642 1794 c-40 -28 -18 -84 34 -84 43 0 74 28 74 66 0 33 -1 34 -43
34 -23 0 -53 -7 -65 -16z"/>
<path d="M3522 1887 c-30 -32 -31 -128 -2 -157 23 -23 68 -26 94 -7 38 28 38
146 0 174 -27 20 -68 15 -92 -10z"/>
<path d="M3832 1903 c-19 -7 -42 -58 -42 -93 0 -88 79 -132 135 -75 20 19 25
34 25 75 0 41 -5 56 -25 75 -23 24 -61 31 -93 18z"/>
<path d="M4137 1903 c-4 -3 -7 -25 -7 -47 -1 -23 -9 -65 -19 -93 l-18 -53 64
0 63 0 0 100 0 100 -38 0 c-21 0 -42 -3 -45 -7z"/>
<path d="M4404 1785 c-24 -24 -25 -28 -11 -48 33 -50 127 -18 127 44 0 28 -2
29 -45 29 -36 0 -52 -6 -71 -25z"/>
<path d="M5092 1794 c-40 -28 -18 -84 34 -84 43 0 74 28 74 66 0 33 -1 34 -43
34 -23 0 -53 -7 -65 -16z"/>
<path d="M5792 1903 c-19 -7 -42 -58 -42 -93 0 -88 79 -132 135 -75 20 19 25
34 25 75 0 41 -5 56 -25 75 -23 24 -61 31 -93 18z"/>
<path d="M6096 1898 c-3 -7 -7 -38 -9 -69 -3 -31 -13 -71 -21 -88 l-17 -31 66
0 65 0 0 100 0 100 -40 0 c-24 0 -42 -5 -44 -12z"/>
<path d="M6372 1794 c-24 -17 -29 -53 -10 -72 19 -19 72 -14 96 8 13 12 22 33
22 50 0 29 -2 30 -43 30 -23 0 -53 -7 -65 -16z"/>
</g>
</svg>
