<?xml version="1.0" standalone="no"?>
<!DOCTYPE svg PUBLIC "-//W3C//DTD SVG 20010904//EN"
 "http://www.w3.org/TR/2001/REC-SVG-20010904/DTD/svg10.dtd">
<svg version="1.0" xmlns="http://www.w3.org/2000/svg"
 width="205.000000pt" height="205.000000pt" viewBox="0 0 205.000000 205.000000"
 preserveAspectRatio="xMidYMid meet">
<metadata>
Created by potrace 1.11, written by Peter Selinger 2001-2013
</metadata>
<g transform="translate(0.000000,205.000000) scale(0.100000,-0.100000)"
fill="#000000" stroke="none">
<path d="M0 1025 l0 -1025 1025 0 1025 0 0 1025 0 1025 -1025 0 -1025 0 0
-1025z m597 533 c-2 -29 -3 -6 -3 52 0 58 1 81 3 53 2 -29 2 -77 0 -105z
m-337 122 c25 -25 25 -41 0 -73 l-20 -25 21 -37 c12 -20 19 -38 16 -41 -2 -3
-16 15 -31 40 -22 38 -30 44 -54 42 -23 -3 -28 -9 -33 -42 -4 -26 -7 -5 -8 59
l-1 97 45 0 c32 0 51 -6 65 -20z m150 -63 c13 -24 13 -29 0 -37 -8 -5 -34 -10
-57 -10 -47 0 -53 -10 -23 -40 23 -23 50 -26 68 -8 8 8 12 8 12 1 0 -12 -23
-23 -50 -23 -29 0 -60 39 -60 77 0 70 78 98 110 40z m128 21 c16 -16 16 -124
0 -126 -7 -1 -27 -4 -45 -8 -28 -5 -34 -3 -44 20 -16 34 1 54 52 62 22 4 39
12 39 18 0 35 -62 49 -79 19 -5 -10 -12 -15 -16 -12 -3 4 1 14 10 23 19 19 66
21 83 4z m528 -379 c46 -100 84 -186 84 -191 0 -4 -20 -8 -45 -8 -34 0 -47 5
-55 20 -9 17 -21 20 -90 20 -69 0 -81 -3 -90 -20 -10 -19 -21 -20 -180 -20
l-170 0 0 190 0 190 50 0 50 0 0 -150 0 -151 90 3 91 3 67 147 c50 111 72 148
87 151 11 1 22 2 24 0 2 -1 41 -84 87 -184z m-659 161 c45 -27 64 -90 40 -133
-17 -29 -17 -31 3 -52 30 -32 28 -105 -4 -142 -24 -27 -28 -28 -146 -33 -67
-3 -123 -3 -125 -1 -2 2 -4 88 -5 192 l0 189 102 0 c84 0 109 -4 135 -20z
m1042 -9 c18 -13 42 -42 52 -65 l18 -41 -46 -3 c-37 -3 -50 1 -62 16 -40 50
-114 52 -151 5 -23 -29 -27 -96 -9 -136 28 -62 145 -67 164 -7 5 16 15 20 56
20 27 0 49 -3 49 -7 0 -24 -47 -95 -73 -111 -65 -40 -169 -39 -230 2 -86 57
-104 218 -34 295 47 51 77 62 157 59 60 -2 82 -8 109 -27z m221 -46 l0 -75 28
6 c44 10 72 48 72 100 l0 44 50 0 50 0 0 -45 c0 -55 -23 -114 -52 -137 l-22
-16 52 -85 c29 -47 52 -88 52 -91 0 -3 -24 -6 -54 -6 l-54 0 -41 70 c-29 49
-48 70 -61 70 -22 0 -24 -11 -20 -92 l2 -48 -51 0 -51 0 0 190 0 190 50 0 50
0 0 -75z m-287 -165 c-23 -23 -54 -32 -72 -21 -20 13 14 59 53 69 26 7 31 6
34 -11 2 -11 -5 -28 -15 -37z m-613 -362 c0 -18 -2 -20 -9 -8 -6 8 -7 18 -5
22 9 14 14 9 14 -14z m490 12 c0 -5 -7 -7 -15 -4 -8 4 -15 8 -15 10 0 2 7 4
15 4 8 0 15 -4 15 -10z m580 0 c0 -5 -4 -10 -10 -10 -5 0 -10 5 -10 10 0 6 5
10 10 10 6 0 10 -4 10 -10z"/>
<path d="M160 1645 c0 -45 0 -45 34 -45 52 0 66 9 66 41 0 33 -23 49 -69 49
-30 0 -31 -1 -31 -45z"/>
<path d="M333 1628 c-27 -35 -25 -38 26 -38 44 0 50 2 44 18 -12 32 -52 43
-70 20z"/>
<path d="M488 1573 c-30 -5 -44 -29 -27 -49 16 -20 43 -17 64 6 16 18 15 52
-2 49 -4 -1 -20 -4 -35 -6z"/>
<path d="M936 1239 c-19 -48 -15 -59 24 -59 16 0 31 4 35 9 7 12 -24 91 -35
91 -4 0 -15 -18 -24 -41z"/>
<path d="M268 1329 c-5 -35 4 -42 53 -37 62 6 46 68 -16 68 -29 0 -33 -4 -37
-31z"/>
<path d="M270 1198 c0 -7 -3 -23 -6 -35 -6 -22 -4 -23 50 -23 60 0 80 16 59
49 -13 21 -103 29 -103 9z"/>
</g>
</svg>
