<?xml version="1.0" standalone="no"?>
<!DOCTYPE svg PUBLIC "-//W3C//DTD SVG 20010904//EN"
 "http://www.w3.org/TR/2001/REC-SVG-20010904/DTD/svg10.dtd">
<svg version="1.0" xmlns="http://www.w3.org/2000/svg"
 width="315.000000pt" height="315.000000pt" viewBox="0 0 315.000000 315.000000"
 preserveAspectRatio="xMidYMid meet">
<metadata>
Created by potrace 1.11, written by Peter Selinger 2001-2013
</metadata>
<g transform="translate(0.000000,315.000000) scale(0.100000,-0.100000)"
fill="#000000" stroke="none">
<path d="M591 3083 l3 -68 -67 -3 -67 -3 0 -1354 0 -1355 995 0 995 0 0 -30
c0 -23 4 -30 20 -30 16 0 20 -7 20 -35 0 -24 5 -35 14 -35 11 0 16 -15 18 -52
l3 -53 178 -3 177 -2 0 39 c0 22 5 43 10 46 6 4 8 11 5 16 -4 5 1 9 9 9 12 0
16 11 16 50 0 38 4 50 15 50 13 0 15 21 15 130 0 109 -2 130 -15 130 -8 0 -15
7 -15 15 0 8 -9 15 -20 15 -13 0 -20 7 -20 20 0 16 -7 20 -35 20 -24 0 -35 5
-35 15 0 11 -12 15 -50 15 -38 0 -50 4 -50 15 0 9 -7 18 -15 21 -13 5 -15 145
-15 1175 l0 1169 -65 0 -65 0 0 70 0 70 -981 0 -980 0 2 -67z m639 -301 c25
-32 25 -53 -1 -86 -39 -50 -129 -23 -129 38 0 39 11 57 43 71 38 16 62 9 87
-23z m794 6 c37 -53 5 -118 -57 -118 -42 0 -70 29 -70 70 0 43 28 70 74 70 28
0 42 -6 53 -22z m-819 -212 c14 -10 21 -33 26 -86 10 -93 45 -164 109 -224 74
-69 127 -90 230 -91 72 0 94 4 141 26 115 54 186 157 198 287 5 56 12 78 26
88 26 19 49 17 70 -6 29 -32 17 -158 -23 -244 -132 -282 -488 -354 -717 -144
-92 84 -145 201 -145 318 0 49 4 61 22 74 28 20 39 20 63 2z m-495 -857 c0
-109 2 -108 87 13 l55 78 49 0 c27 0 49 -3 49 -7 0 -5 -26 -44 -58 -88 l-57
-80 31 -27 c30 -27 77 -111 90 -163 6 -24 5 -25 -43 -25 l-50 0 -36 73 c-33
67 -73 107 -106 107 -7 0 -11 -31 -11 -90 l0 -90 -45 0 -45 0 0 195 0 195 45
0 45 0 0 -91z m390 -41 c1 -155 -4 -156 93 19 l62 112 58 1 57 0 0 -195 0
-195 -45 0 -45 0 0 128 0 127 -72 -127 -73 -128 -62 0 -63 0 0 195 0 195 45 0
45 0 0 -132z m668 95 l-3 -38 -107 -3 -108 -3 0 -34 0 -35 73 -1 c134 -1 167
-27 167 -132 0 -48 -4 -62 -25 -82 -23 -24 -29 -25 -160 -25 l-135 0 0 195 0
195 151 0 150 0 -3 -37z m402 -3 l0 -40 -100 0 -100 0 0 -35 0 -35 70 0 70 0
0 -40 0 -40 -70 0 -70 0 0 -45 0 -45 100 0 100 0 0 -40 0 -40 -145 0 -145 0 0
200 0 200 145 0 145 0 0 -40z m341 30 c35 -19 51 -67 47 -138 -4 -58 -8 -68
-36 -93 -30 -27 -38 -29 -117 -29 l-85 0 0 -60 0 -60 -40 0 -40 0 0 195 0 195
126 0 c69 0 134 -5 145 -10z m-1583 -537 c17 -24 15 -98 -4 -117 -24 -25 -90
-21 -108 6 -30 43 -17 116 24 131 24 10 74 -2 88 -20z m329 21 c19 -5 43 -48
43 -75 0 -5 -23 -9 -51 -9 -43 0 -50 -3 -47 -17 2 -13 14 -19 41 -21 24 -2 37
-8 37 -18 0 -23 -76 -18 -100 6 -35 35 -22 112 23 130 27 11 27 11 54 4z m381
-10 c14 -10 22 -25 22 -45 0 -28 -2 -29 -46 -29 -38 0 -45 -3 -42 -17 2 -13
14 -19 41 -21 24 -2 37 -8 37 -18 0 -10 -12 -14 -44 -14 -35 0 -48 5 -60 22
-28 39 -18 109 17 126 31 15 49 14 75 -4z m-880 -66 c-2 -60 -6 -73 -20 -76
-16 -3 -18 5 -18 57 l0 61 -30 0 -30 0 0 -61 c0 -49 -3 -60 -16 -57 -8 2 -15
6 -15 11 1 4 1 36 1 72 l0 65 65 0 66 0 -3 -72z m262 47 c0 -21 5 -25 30 -25
25 0 30 4 30 25 0 18 5 25 20 25 18 0 20 -7 20 -75 0 -68 -2 -75 -20 -75 -16
0 -20 7 -20 36 0 33 -2 35 -27 32 -23 -2 -29 -8 -31 -35 -2 -21 -9 -33 -18
-33 -11 0 -14 16 -14 75 0 60 3 75 15 75 9 0 15 -9 15 -25z m460 -35 c0 -33 4
-60 10 -60 6 0 10 -16 10 -35 0 -24 -5 -35 -15 -35 -8 0 -15 9 -15 20 0 18 -7
20 -60 20 -54 0 -60 -2 -60 -21 0 -31 -24 -17 -28 16 -2 18 2 31 12 37 8 4 18
30 22 56 3 26 8 50 11 55 2 4 29 7 59 7 l54 0 0 -60z m350 -15 c0 -60 -3 -75
-15 -75 -12 0 -15 13 -15 61 0 57 -1 60 -22 57 -18 -2 -24 -13 -33 -58 -7 -41
-15 -56 -29 -58 -17 -4 -18 0 -12 29 4 19 9 53 13 77 l6 42 53 0 54 0 0 -75z
m90 50 c0 -22 4 -25 34 -25 38 0 66 -21 66 -50 0 -34 -28 -50 -86 -50 l-54 0
0 75 c0 68 2 75 20 75 15 0 20 -7 20 -25z m170 0 c0 -22 4 -25 35 -25 31 0 35
3 35 25 0 16 6 25 15 25 12 0 15 -15 15 -75 0 -59 -3 -75 -14 -75 -9 0 -16 12
-18 33 -3 28 -6 32 -33 32 -27 0 -30 -4 -33 -32 -2 -21 -9 -33 -18 -33 -11 0
-14 16 -14 75 0 60 3 75 15 75 9 0 15 -9 15 -25z m192 -17 l3 -43 25 42 c14
25 33 43 43 43 15 0 17 -10 17 -75 0 -59 -3 -75 -14 -75 -10 0 -16 14 -18 43
l-3 42 -29 -42 c-16 -25 -37 -43 -47 -43 -17 0 -19 8 -19 75 0 68 2 75 19 75
16 0 20 -8 23 -42z m178 10 l1 -33 28 33 c15 17 35 32 44 32 22 0 21 -9 -4
-36 l-21 -22 26 -38 c31 -46 32 -54 7 -54 -11 0 -28 15 -40 35 -11 19 -25 35
-31 35 -5 0 -10 -16 -10 -35 0 -28 -4 -35 -20 -35 -18 0 -20 7 -20 75 0 68 2
75 20 75 16 0 20 -7 20 -32z m130 -603 l0 -155 26 0 c25 0 25 1 23 68 l-3 67
32 3 32 3 0 -70 c0 -64 2 -71 20 -71 17 0 20 7 20 50 0 50 0 50 33 50 l32 0 0
-67 c0 -61 2 -68 20 -68 17 0 20 8 23 53 2 28 7 52 13 52 5 0 9 -7 9 -16 0 -9
9 -18 20 -21 19 -5 20 -14 20 -124 0 -112 -1 -119 -20 -119 -17 0 -20 -7 -20
-50 0 -38 -4 -50 -15 -50 -10 0 -15 -11 -15 -35 l0 -35 -135 0 -135 0 0 31 c0
22 -5 32 -20 36 -15 4 -20 14 -20 39 0 24 -5 34 -15 34 -10 0 -15 10 -15 31 0
22 -5 32 -20 36 -15 4 -20 14 -20 39 0 27 -4 34 -20 34 -13 0 -18 5 -14 15 4
10 0 15 -15 15 -17 0 -21 6 -21 35 0 32 2 35 30 35 23 0 30 -4 30 -20 0 -13 7
-20 19 -20 11 0 21 -9 24 -21 3 -12 12 -19 19 -17 10 4 14 49 16 196 l2 192
30 0 30 0 0 -155z m-702 93 c3 -15 -4 -18 -32 -18 -44 0 -47 -16 -6 -25 28 -6
50 -30 50 -54 0 -23 -33 -41 -76 -41 -37 0 -44 3 -44 19 0 15 7 19 31 17 18 0
34 5 36 12 3 7 -5 12 -20 12 -28 0 -57 23 -57 46 0 8 9 23 21 35 26 26 92 24
97 -3z m174 -60 l27 -78 -24 0 c-16 0 -25 6 -25 15 0 10 -10 15 -34 15 -21 0
-36 -6 -40 -15 -3 -8 -15 -15 -27 -15 -13 0 -19 5 -17 13 3 6 13 37 23 67 22
70 32 82 64 78 23 -3 30 -13 53 -80z m96 14 c3 -61 3 -62 32 -62 20 0 30 -5
30 -15 0 -11 -12 -15 -50 -15 l-50 0 0 81 c0 71 2 80 18 77 14 -3 18 -16 20
-66z m220 46 c3 -15 -4 -18 -37 -18 -23 0 -41 -4 -41 -10 0 -5 14 -10 31 -10
24 0 30 -4 27 -17 -2 -11 -14 -19 -31 -21 -40 -5 -28 -26 16 -30 24 -2 37 -8
37 -18 0 -11 -14 -14 -60 -14 l-60 0 0 80 0 81 57 -3 c46 -2 59 -7 61 -20z"/>
<path d="M1552 1538 l3 -43 65 0 c61 0 65 1 74 27 15 43 -5 58 -81 58 l-64 0
3 -42z"/>
<path d="M2322 1673 l3 -58 53 -3 c70 -4 84 8 80 67 l-3 46 -68 3 -68 3 3 -58z"/>
<path d="M844 1246 c-3 -8 -4 -29 -2 -48 2 -27 8 -34 30 -36 22 -3 27 2 33 27
3 16 1 39 -5 50 -12 24 -48 28 -56 7z"/>
<path d="M1213 1253 c-26 -10 -13 -33 18 -33 24 0 30 4 27 17 -3 18 -24 26
-45 16z"/>
<path d="M1577 1254 c-17 -17 -5 -34 24 -34 24 0 30 4 27 18 -3 17 -38 29 -51
16z"/>
<path d="M1397 1233 c-19 -71 -19 -73 13 -73 29 0 30 2 30 45 0 38 -3 45 -19
45 -11 0 -22 -8 -24 -17z"/>
<path d="M1920 1181 c0 -17 6 -21 31 -21 24 0 30 4 27 18 -2 10 -14 18 -31 20
-22 3 -27 -1 -27 -17z"/>
<path d="M1992 700 c-11 -28 1 -51 18 -34 7 7 7 19 1 35 l-9 24 -10 -25z"/>
</g>
</svg>
